<svg width="28" height="28" viewBox="0 0 28 28" fill="none" xmlns="http://www.w3.org/2000/svg">
<g clip-path="url(#clip0_76_2663)">
<path d="M14 0.875C8.26877 0.875 3.41252 4.55 1.61877 9.625H26.3813C24.5875 4.55 19.7313 0.875 14 0.875Z" fill="#428BC1"/>
<path d="M14 27.125C19.7313 27.125 24.5875 23.4938 26.3813 18.375H1.61877C3.41252 23.4938 8.26877 27.125 14 27.125Z" fill="#83BF4F"/>
<path d="M1.61875 9.625C1.1375 10.9812 0.875 12.4688 0.875 14C0.875 15.5312 1.1375 17.0188 1.61875 18.375H26.3813C26.8625 17.0188 27.125 15.5312 27.125 14C27.125 12.4688 26.8625 10.9812 26.3813 9.625H1.61875Z" fill="#ED4C5C"/>
<path d="M13.825 17.5875C11.8562 17.5875 10.2375 15.9687 10.2375 14C10.2375 12.0312 11.8562 10.4125 13.825 10.4125C14.3062 10.4125 14.7437 10.5 15.1375 10.675C14.4375 10.15 13.5625 9.79999 12.6 9.79999C10.2812 9.79999 8.44373 11.6812 8.44373 14C8.44373 16.3187 10.325 18.2 12.6 18.2C13.5625 18.2 14.4375 17.8937 15.1375 17.325C14.7437 17.5 14.3062 17.5875 13.825 17.5875Z" fill="white"/>
<path d="M17.675 14.6125L16.7125 15.2688L17.325 14.2625L16.1875 14L17.325 13.7375L16.6687 12.775L17.675 13.3875L17.9375 12.25L18.2 13.3875L19.1625 12.7313L18.55 13.7375L19.6875 14L18.55 14.2625L19.2063 15.225L18.2 14.6125L17.9375 15.75L17.675 14.6125Z" fill="white"/>
</g>
<defs>
<clipPath id="clip0_76_2663">
<rect width="28" height="28" fill="white"/>
</clipPath>
</defs>
</svg>
