<svg width="22" height="22" viewBox="0 0 22 22" fill="none" xmlns="http://www.w3.org/2000/svg">
<g clip-path="url(#clip0_76_2737)">
<path d="M19.0029 5.96041H2.97243C4.64541 3.29756 7.6069 1.52862 10.9801 1.52588H10.9952C14.3683 1.52862 17.3297 3.2975 19.0029 5.96041Z" fill="#F3F4F5" stroke="white" stroke-width="2.81"/>
<path d="M21.2336 14.6099H0.741699C2.23383 18.8301 6.25648 21.8545 10.9876 21.8545C15.7188 21.8545 19.7414 18.8301 21.2336 14.6099Z" fill="#D52B1E"/>
<path d="M21.2336 14.6099C21.6342 13.4767 21.8544 12.2581 21.8544 10.9877C21.8544 9.71723 21.6345 8.4987 21.2336 7.36541H0.741706C0.340842 8.4987 0.12085 9.71723 0.12085 10.9877C0.12085 12.2581 0.341083 13.4769 0.741706 14.6099H21.2336Z" fill="#0039A6"/>
</g>
<defs>
<clipPath id="clip0_76_2737">
<rect width="22" height="22" fill="white"/>
</clipPath>
</defs>
</svg>
