<svg width="22" height="22" viewBox="0 0 22 22" fill="none" xmlns="http://www.w3.org/2000/svg">
<g clip-path="url(#clip0_76_2740)">
<path d="M21.2336 7.36541C19.7424 3.14764 15.7234 0.124501 10.9959 0.120879H10.9794C6.2519 0.124501 2.23263 3.14764 0.741706 7.36541C0.340842 8.4987 0.12085 9.71723 0.12085 10.9877C0.12085 12.2581 0.341083 13.4769 0.741706 14.6099C2.23384 18.8301 6.25648 21.8545 10.9876 21.8545C15.7188 21.8545 19.7415 18.8301 21.2336 14.6099C21.6342 13.4767 21.8544 12.2581 21.8544 10.9877C21.8544 9.71723 21.6345 8.4987 21.2336 7.36541Z" fill="#F31930"/>
<path d="M10.2878 15.1731C7.93596 15.1731 6.02944 13.2992 6.02944 10.9874C6.02944 8.6757 7.93596 6.80179 10.2878 6.80179C11.5534 6.80179 12.6867 7.34754 13.4667 8.20916C12.5251 6.73562 10.8579 5.75543 8.95695 5.75543C6.01712 5.75543 3.63416 8.09783 3.63416 10.9877C3.63416 13.8775 6.01712 16.2199 8.95695 16.2199C10.8586 16.2199 12.5263 15.239 13.4676 13.7645C12.6879 14.6268 11.5541 15.1731 10.2878 15.1731Z" fill="#F3F4F5"/>
<path d="M15.3165 8.54337L15.2735 10.4774L13.4691 10.9674L15.2479 11.6008L15.2049 13.3745L16.365 11.9894L18.1179 12.5974L17.1039 11.1111L18.3413 9.63295L16.4423 10.1565L15.3165 8.54337Z" fill="#F3F4F5"/>
</g>
<defs>
<clipPath id="clip0_76_2740">
<rect width="22" height="22" fill="white"/>
</clipPath>
</defs>
</svg>
