<svg width="80" height="81" viewBox="0 0 80 81" fill="none" xmlns="http://www.w3.org/2000/svg">
<g clip-path="url(#clip0_92_3122)">
<path d="M40 67.1667C54.7276 67.1667 66.6667 55.2276 66.6667 40.5C66.6667 25.7724 54.7276 13.8333 40 13.8333C25.2724 13.8333 13.3333 25.7724 13.3333 40.5C13.3333 55.2276 25.2724 67.1667 40 67.1667Z" fill="#F8F6F4"/>
<path d="M40 65.8333C53.9912 65.8333 65.3333 54.4912 65.3333 40.5C65.3333 26.5088 53.9912 15.1667 40 15.1667C26.0088 15.1667 14.6667 26.5088 14.6667 40.5C14.6667 54.4912 26.0088 65.8333 40 65.8333Z" fill="#E6E6E6"/>
<path d="M40 57.8333C49.5729 57.8333 57.3333 50.0729 57.3333 40.5C57.3333 30.9271 49.5729 23.1667 40 23.1667C30.4271 23.1667 22.6667 30.9271 22.6667 40.5C22.6667 50.0729 30.4271 57.8333 40 57.8333Z" fill="#741F00"/>
<path d="M40 52.5C46.6274 52.5 52 47.1274 52 40.5C52 33.8726 46.6274 28.5 40 28.5C33.3726 28.5 28 33.8726 28 40.5C28 47.1274 33.3726 52.5 40 52.5Z" fill="#F1EDE8"/>
<path d="M32 41.8333C32 37.415 35.5817 29.8333 40 29.8333C44.4183 29.8333 48 37.415 48 41.8333C48 46.2516 44.4183 49.8333 40 49.8333C35.5817 49.8333 32 46.2517 32 41.8333Z" fill="#F27503"/>
<path d="M47.6575 39.16C45.9695 41.5795 43.1673 43.1667 40 43.1667C36.8327 43.1667 34.0305 41.5795 32.3425 39.16C32.12 40.113 32 41.0259 32 41.8333C32 42.1684 32.023 42.4983 32.063 42.8227C34.1802 44.6942 36.9588 45.8333 40 45.8333C43.0413 45.8333 45.8198 44.6941 47.937 42.8227C47.977 42.4981 48 42.1684 48 41.8333C48 41.0259 47.88 40.113 47.6575 39.16Z" fill="#FBBC66"/>
<path d="M34.1817 34.4567C33.7372 35.2436 33.3494 36.0802 33.0287 36.9248C34.9955 38.3339 37.4016 39.1667 40.0002 39.1667C42.5986 39.1667 45.0048 38.3339 46.9716 36.9247C46.6509 36.08 46.2633 35.2433 45.8186 34.4566C44.2216 35.7336 42.1992 36.5 40 36.5C37.8008 36.5 35.7784 35.7336 34.1817 34.4567Z" fill="#FBBC66"/>
<path d="M12 16.5C11.2636 16.5 10.6667 17.097 10.6667 17.8333V27.1666C10.6667 27.9017 10.0686 28.4998 9.33344 28.4998H8V17.8331C8 17.0967 7.40297 16.4998 6.66672 16.4998C5.93047 16.4998 5.33344 17.0969 5.33344 17.8331V28.5H4C3.26484 28.5 2.66672 27.9019 2.66672 27.1667V17.8334C2.66672 17.097 2.06969 16.5002 1.33344 16.5002C0.597188 16.5002 0 17.097 0 17.8333V27.1666C0 29.372 1.79453 31.1666 4 31.1666H5.33328V48.5C5.33328 49.2364 5.93031 49.8333 6.66656 49.8333C7.40281 49.8333 7.99984 49.2363 7.99984 48.5V31.1667H9.33313C11.5386 31.1667 13.3331 29.3722 13.3331 27.1667V17.8334C13.3333 17.097 12.7364 16.5 12 16.5Z" fill="#F9C900"/>
<path d="M5.33328 48.5C5.33328 49.2364 5.93031 49.8333 6.66656 49.8333C7.40281 49.8333 7.99985 49.2363 7.99985 48.5V45.8333H5.33328V48.5Z" fill="#F9AA0C"/>
<path d="M2.66672 48.5V60.41C2.66672 62.6525 4.50187 64.5419 6.74406 64.4994C8.9175 64.458 10.6667 62.6834 10.6667 60.5V48.5C10.6667 47.7636 10.0697 47.1667 9.33344 47.1667H4C3.26359 47.1667 2.66672 47.7636 2.66672 48.5Z" fill="#F27503"/>
<path d="M5.33328 60.4098V47.1667H4C3.26359 47.1667 2.66672 47.7638 2.66672 48.5V60.4098C2.66672 62.6525 4.50187 64.5419 6.74406 64.4992C7.18875 64.4908 7.61516 64.4087 8.01312 64.2666C6.45359 63.6984 5.33328 62.162 5.33328 60.4098Z" fill="#F27503"/>
<path d="M77.5952 14.3773C75.6927 16.9708 73.6125 20.4142 72 24.7206C69.5833 31.1747 69.2019 36.9373 69.2853 40.7545C69.3011 41.4776 69.895 42.0539 70.6183 42.0539H72V60.4098C72 62.6525 73.8352 64.5419 76.0774 64.4992C78.2508 64.4579 80 62.6833 80 60.5V15.1709C80 13.8854 78.3555 13.3406 77.5952 14.3773Z" fill="#F9C900"/>
<path d="M77.5952 14.3773C75.6927 16.9707 73.6125 20.4141 72 24.7205C69.5833 31.1746 69.2019 36.9373 69.2853 40.7544C69.3011 41.4776 69.895 42.0538 70.6183 42.0538H72C71.8058 38.3232 71.9572 31.9563 74.6667 24.7205C76.1922 20.6465 78.1358 17.3463 79.9519 14.806C79.6769 13.7921 78.2789 13.4451 77.5952 14.3773Z" fill="#F9AA0C"/>
<path d="M72 45.875V60.4098C72 62.6525 73.8352 64.5419 76.0773 64.4992C78.2508 64.458 80 62.6833 80 60.5V45.875H72Z" fill="#F9AA0C"/>
<path d="M72 47.1667V60.41C72 62.6525 73.8352 64.5419 76.0773 64.4994C78.2508 64.458 80 62.6833 80 60.5V47.1667H72Z" fill="#F27503"/>
<path d="M74.6667 60.4098V47.1667H72V60.4098C72 62.6525 73.8352 64.5419 76.0773 64.4992C76.522 64.4908 76.9484 64.4087 77.3464 64.2666C75.787 63.6984 74.6667 62.162 74.6667 60.4098Z" fill="#F27503"/>
</g>
<defs>
<clipPath id="clip0_92_3122">
<rect width="80" height="80" fill="white" transform="translate(0 0.5)"/>
</clipPath>
</defs>
</svg>
