<svg width="80" height="81" viewBox="0 0 80 81" fill="none" xmlns="http://www.w3.org/2000/svg">
<path d="M17.2642 41.2107H33.7516V55.984H17.2642V41.2107Z" fill="#FDD899"/>
<path d="M44.8935 33.7213C42.707 33.7213 40.9344 31.9487 40.9344 29.7621C40.9344 27.5756 42.707 25.803 44.8935 25.803C47.0801 25.803 48.8527 27.5756 48.8527 29.7621C48.8527 31.9487 47.0801 33.7213 44.8935 33.7213Z" fill="#FBBC66"/>
<path d="M6.12227 33.7215C3.93558 33.7215 2.16292 31.9488 2.16292 29.7621C2.16292 27.5755 3.93558 25.8028 6.12227 25.8028C8.30895 25.8028 10.0816 27.5755 10.0816 29.7621C10.0816 31.9488 8.30895 33.7215 6.12227 33.7215Z" fill="#FBBC66"/>
<path d="M5.38792 33.0075C5.38792 44.1194 14.3956 53.1275 25.5079 53.1275C36.6198 53.1275 45.6281 44.1194 45.6281 33.0075V26.517C45.6281 15.4049 36.6198 6.39677 25.5079 6.39677C14.3958 6.39677 5.38792 15.4049 5.38792 26.517V33.0075Z" fill="#FDD899"/>
<path d="M35.833 30.4268C34.6834 30.4268 33.7514 29.4948 33.7514 28.3452C33.7514 27.1956 34.6834 26.2637 35.833 26.2637C36.9826 26.2637 37.9145 27.1956 37.9145 28.3452C37.9145 29.4948 36.9826 30.4268 35.833 30.4268Z" fill="#070707"/>
<path d="M15.1828 30.4266C14.0334 30.4266 13.1015 29.4947 13.1015 28.3452C13.1015 27.1957 14.0334 26.2639 15.1828 26.2639C16.3323 26.2639 17.2642 27.1957 17.2642 28.3452C17.2642 29.4947 16.3323 30.4266 15.1828 30.4266Z" fill="#070707"/>
<path d="M25.5079 6.39677C36.0614 6.39677 44.7108 14.5237 45.5548 24.8595C39.3368 23.6184 34.1547 19.5084 31.45 13.9651C27.5381 20.713 20.2379 25.252 11.8767 25.252C9.66446 25.252 7.52798 24.9317 5.50718 24.3395C6.59278 14.252 15.1317 6.39677 25.5079 6.39677Z" fill="#333E48"/>
<path d="M18.0449 38.762C18.0449 36.9135 19.5432 35.4153 21.3916 35.4153H29.6703C31.5188 35.4153 33.0173 36.9138 33.0173 38.762H18.0449Z" fill="#070707"/>
<path d="M22.9599 33.5469C22.9599 34.9669 24.1109 36.118 25.5308 36.118C26.9508 36.118 28.1021 34.9669 28.1021 33.5469V31.8327C28.1021 30.4127 26.9508 29.2618 25.5308 29.2618C24.1109 29.2618 22.9599 30.4129 22.9599 31.8327V33.5469Z" fill="#FBBC66"/>
<path d="M7.62939e-06 64.6366C7.62939e-06 59.8579 3.87395 55.984 8.65283 55.984H42.3632C47.1421 55.984 51.0163 59.8579 51.0163 64.6366V74.603H0.000232697V64.6366H7.62939e-06Z" fill="#333E48"/>
<path d="M33.7516 55.984L25.5079 69.0526L17.2642 55.984H33.7516Z" fill="white"/>
<path d="M8.28543 68.1344H17.2642V69.5424H8.28543V68.1344Z" fill="white"/>
<path d="M25.9878 60.7207C25.5893 60.3585 25.5893 59.766 25.9878 59.404L28.3655 57.2456C28.7641 56.8833 29.0905 57.0277 29.0905 57.5666L29.0902 62.5586C29.0902 63.0975 28.7641 63.2419 28.3653 62.8796L25.9878 60.7207Z" fill="#F27503"/>
<path d="M25.0282 60.7207C25.4265 60.3585 25.4265 59.766 25.0282 59.404L22.651 57.2456C22.2524 56.8833 21.9258 57.0277 21.9258 57.5666L21.9261 62.5586C21.9261 63.0975 22.2524 63.2419 22.6512 62.8796L25.0282 60.7207Z" fill="#F27503"/>
<path d="M25.5082 60.9604C25.0123 60.9604 24.6104 60.5584 24.6104 60.0626C24.6104 59.5668 25.0123 59.1648 25.5082 59.1648C26.004 59.1648 26.4059 59.5668 26.4059 60.0626C26.4059 60.5584 26.004 60.9604 25.5082 60.9604Z" fill="#F27503"/>
<path d="M37.5619 70.842C37.5619 59.8129 46.503 50.872 57.5322 50.872C68.5609 50.872 77.502 59.8129 77.502 70.842H37.5619Z" fill="#5C6670"/>
<path d="M57.5319 53.1172C56.292 53.1172 55.2867 52.112 55.2867 50.872C55.2867 49.632 56.292 48.6268 57.5319 48.6268C58.7719 48.6268 59.7771 49.632 59.7771 50.872C59.7771 52.112 58.7719 53.1172 57.5319 53.1172Z" fill="#333E48"/>
<path d="M77.5017 70.842C77.5017 59.8129 68.5606 50.872 57.5319 50.872C46.5028 50.872 37.5617 59.8129 37.5617 70.842H77.5017Z" fill="#F27503"/>
<path d="M35.0641 70.842H80V74.603H35.0641V70.842Z" fill="#741F00"/>
<path d="M35.0641 70.842H80V72.7227H35.0641V70.842Z" fill="#FBBC66"/>
</svg>
