<svg width="22" height="22" viewBox="0 0 22 22" fill="none" xmlns="http://www.w3.org/2000/svg">
<g clip-path="url(#clip0_76_2734)">
<path d="M20.1192 13.4639L20.1246 13.4441C20.3354 12.6601 20.4494 11.8375 20.4494 10.9877C20.4494 10.1398 20.336 9.31921 20.1261 8.53684L20.1193 8.51156L20.115 8.49748C20.1105 8.48272 20.1048 8.46325 20.0987 8.44101L20.1002 8.44059M20.1002 8.44059L20.0379 8.20824L20.0124 8.13622L20.0117 8.13416L19.9556 7.97545L19.9555 7.97546L19.957 7.97985C19.9782 8.04282 19.9939 8.08954 20.0083 8.13524L20.0089 8.13733C20.0397 8.23455 20.0695 8.33627 20.0996 8.44431L20.1011 8.44389L20.1002 8.44059Z" fill="#F3F4F5" stroke="white" stroke-width="2.81"/>
<path d="M13.1608 0.338698C12.5414 0.212885 11.9019 0.143096 11.2489 0.127641H10.7264C10.0736 0.143096 9.43442 0.213126 8.81525 0.338698V8.81866H0.337944C0.195951 9.51945 0.12085 10.2449 0.12085 10.9877C0.12085 11.7331 0.196193 12.4607 0.339151 13.1639H8.81525V21.6369C9.51725 21.7794 10.2436 21.8545 10.9876 21.8545C11.7319 21.8545 12.4585 21.7794 13.1608 21.6367V13.1639H21.6361C21.7791 12.4607 21.8544 11.7331 21.8544 10.9877C21.8544 10.2449 21.7793 9.51945 21.6373 8.81842H13.1608V0.338698Z" fill="#CC0000"/>
<path d="M20.7054 15.85C20.9056 15.4508 21.0822 15.0379 21.2328 14.6124H18.2305L20.7054 15.85Z" fill="#CC0000"/>
<path d="M19.9747 4.87836L14.9917 7.37H18.2305L20.7084 6.13094C20.4908 5.69627 20.2464 5.27754 19.9747 4.87836Z" fill="#CC0000"/>
<path d="M1.26715 6.1307C1.06696 6.53036 0.890679 6.94402 0.740234 7.37H3.74551L1.26715 6.1307Z" fill="#CC0000"/>
<path d="M2.00437 17.1023L6.98426 14.6124H3.74547L1.26978 15.8502C1.48784 16.2849 1.73246 16.7036 2.00437 17.1023Z" fill="#CC0000"/>
<path d="M2.4364 4.28624L7.36655 6.75132V5.78779V0.744875C5.40304 1.4389 3.69792 2.67892 2.4364 4.28624Z" fill="#070707"/>
<path d="M14.6091 0.745116V6.1307V6.75132L19.5388 4.28648C18.2775 2.67916 16.5726 1.43914 14.6091 0.745116Z" fill="#070707"/>
<path d="M7.36683 17.6937V15.231L2.44055 17.6942C3.70158 19.2991 5.40501 20.5374 7.36683 21.231V17.6937Z" fill="#070707"/>
<path d="M14.6091 15.231V17.4759V21.2305C16.5707 20.5369 18.2739 19.2986 19.5349 17.6937L14.6091 15.231Z" fill="#070707"/>
</g>
<defs>
<clipPath id="clip0_76_2734">
<rect width="22" height="22" fill="white"/>
</clipPath>
</defs>
</svg>
